<svg xmlns="http://www.w3.org/2000/svg" viewBox="0 0 800 420" font-family="'Segoe UI', Arial, sans-serif">
  <rect width="800" height="420" fill="#f8fafc"/>
  <rect width="800" height="46" fill="#16a34a"/>
  <text x="20" y="28" fill="#fff" font-size="16" font-weight="bold">Daily Calorie &amp; Nutrition Tracker</text>
  <text x="20" y="42" fill="#bbf7d0" font-size="10">Target: 1,850 kcal  |  Protein: 140g  |  Carbs: 200g  |  Fat: 65g  |  April 17, 2026</text>

  <!-- Progress bars header -->
  <rect y="46" width="800" height="60" fill="#166534"/>

  <!-- Calories bar -->
  <text x="20" y="66" fill="#bbf7d0" font-size="10">Calories</text>
  <text x="160" y="66" fill="#fff" font-size="10" font-weight="bold">1,423 / 1,850 kcal</text>
  <rect x="20" y="70" width="560" height="12" rx="6" fill="#14532d"/>
  <rect x="20" y="70" width="430" height="12" rx="6" fill="#4ade80"/>
  <text x="590" y="80" fill="#86efac" font-size="10">77%</text>

  <!-- Protein bar -->
  <text x="20" y="98" fill="#bbf7d0" font-size="10">Protein</text>
  <text x="160" y="98" fill="#fff" font-size="10" font-weight="bold">98g / 140g</text>
  <rect x="20" y="100" width="300" height="8" rx="4" fill="#14532d"/>
  <rect x="20" y="100" width="210" height="8" rx="4" fill="#38bdf8"/>

  <text x="340" y="98" fill="#bbf7d0" font-size="10">Carbs</text>
  <text x="420" y="98" fill="#fff" font-size="10" font-weight="bold">142g / 200g</text>
  <rect x="340" y="100" width="240" height="8" rx="4" fill="#14532d"/>
  <rect x="340" y="100" width="170" height="8" rx="4" fill="#f59e0b"/>

  <text x="600" y="98" fill="#bbf7d0" font-size="10">Fat</text>
  <text x="650" y="98" fill="#fff" font-size="10" font-weight="bold">48g / 65g</text>
  <rect x="640" y="100" width="140" height="8" rx="4" fill="#14532d"/>
  <rect x="640" y="100" width="103" height="8" rx="4" fill="#a78bfa"/>

  <!-- Food log table -->
  <rect y="106" width="800" height="26" fill="#1e293b"/>
  <text x="16" y="124" fill="#94a3b8" font-size="10" font-weight="bold">Meal</text>
  <text x="90" y="124" fill="#94a3b8" font-size="10" font-weight="bold">Food Name</text>
  <text x="320" y="124" fill="#94a3b8" font-size="10" font-weight="bold">Qty</text>
  <text x="380" y="124" fill="#94a3b8" font-size="10" font-weight="bold">Calories ↕</text>
  <text x="460" y="124" fill="#94a3b8" font-size="10" font-weight="bold">Protein</text>
  <text x="530" y="124" fill="#94a3b8" font-size="10" font-weight="bold">Carbs</text>
  <text x="600" y="124" fill="#94a3b8" font-size="10" font-weight="bold">Fat</text>
  <text x="660" y="124" fill="#94a3b8" font-size="10" font-weight="bold">Note</text>

  <!-- Breakfast rows -->
  <rect y="132" width="800" height="22" fill="#fef9c3"/>
  <text x="16" y="147" fill="#92400e" font-size="10" font-weight="bold">🌅 Breakfast</text>
  <rect y="154" width="800" height="22" fill="#fff"/>
  <text x="16" y="169" fill="#64748b" font-size="10">Breakfast</text>
  <text x="90" y="169" fill="#1e293b" font-size="10">Oatmeal cooked</text>
  <text x="320" y="169" fill="#64748b" font-size="10">1 cup</text>
  <text x="380" y="169" fill="#1e293b" font-size="10">154</text>
  <text x="460" y="169" fill="#38bdf8" font-size="10">5.4g</text>
  <text x="530" y="169" fill="#f59e0b" font-size="10">27.4g</text>
  <text x="600" y="169" fill="#a78bfa" font-size="10">2.6g</text>
  <text x="660" y="169" fill="#22c55e" font-size="10">✓ VLOOKUP</text>

  <rect y="176" width="800" height="22" fill="#f8fafc"/>
  <text x="16" y="191" fill="#64748b" font-size="10">Breakfast</text>
  <text x="90" y="191" fill="#1e293b" font-size="10">Greek yogurt</text>
  <text x="320" y="191" fill="#64748b" font-size="10">200g</text>
  <text x="380" y="191" fill="#1e293b" font-size="10">120</text>
  <text x="460" y="191" fill="#38bdf8" font-size="10">20g</text>
  <text x="530" y="191" fill="#f59e0b" font-size="10">8g</text>
  <text x="600" y="191" fill="#a78bfa" font-size="10">0.4g</text>
  <text x="660" y="191" fill="#22c55e" font-size="10">✓ VLOOKUP</text>

  <!-- Lunch rows -->
  <rect y="198" width="800" height="22" fill="#dbeafe"/>
  <text x="16" y="213" fill="#1d4ed8" font-size="10" font-weight="bold">☀ Lunch</text>
  <rect y="220" width="800" height="22" fill="#fff"/>
  <text x="16" y="235" fill="#64748b" font-size="10">Lunch</text>
  <text x="90" y="235" fill="#1e293b" font-size="10">Chicken breast</text>
  <text x="320" y="235" fill="#64748b" font-size="10">150g</text>
  <text x="380" y="235" fill="#1e293b" font-size="10">248</text>
  <text x="460" y="235" fill="#38bdf8" font-size="10">46.5g</text>
  <text x="530" y="235" fill="#f59e0b" font-size="10">0g</text>
  <text x="600" y="235" fill="#a78bfa" font-size="10">5.4g</text>
  <text x="660" y="235" fill="#22c55e" font-size="10">✓ VLOOKUP</text>

  <rect y="242" width="800" height="22" fill="#f8fafc"/>
  <text x="16" y="257" fill="#64748b" font-size="10">Lunch</text>
  <text x="90" y="257" fill="#1e293b" font-size="10">Brown rice cooked</text>
  <text x="320" y="257" fill="#64748b" font-size="10">150g</text>
  <text x="380" y="257" fill="#1e293b" font-size="10">166</text>
  <text x="460" y="257" fill="#38bdf8" font-size="10">3.5g</text>
  <text x="530" y="257" fill="#f59e0b" font-size="10">34.2g</text>
  <text x="600" y="257" fill="#a78bfa" font-size="10">1.3g</text>
  <text x="660" y="257" fill="#22c55e" font-size="10">✓ VLOOKUP</text>

  <!-- Dinner rows -->
  <rect y="264" width="800" height="22" fill="#fce7f3"/>
  <text x="16" y="279" fill="#9d174d" font-size="10" font-weight="bold">🌙 Dinner</text>
  <rect y="286" width="800" height="22" fill="#fff"/>
  <text x="16" y="301" fill="#64748b" font-size="10">Dinner</text>
  <text x="90" y="301" fill="#1e293b" font-size="10">Salmon fillet</text>
  <text x="320" y="301" fill="#64748b" font-size="10">200g</text>
  <text x="380" y="301" fill="#1e293b" font-size="10">416</text>
  <text x="460" y="301" fill="#38bdf8" font-size="10">40g</text>
  <text x="530" y="301" fill="#f59e0b" font-size="10">0g</text>
  <text x="600" y="301" fill="#a78bfa" font-size="10">24g</text>
  <text x="660" y="301" fill="#22c55e" font-size="10">✓ VLOOKUP</text>

  <!-- Totals -->
  <rect y="308" width="800" height="28" fill="#166534"/>
  <text x="16" y="327" fill="#fff" font-size="11" font-weight="bold">DAILY TOTALS</text>
  <text x="380" y="327" fill="#4ade80" font-size="11" font-weight="bold">1,423 kcal</text>
  <text x="460" y="327" fill="#38bdf8" font-size="11" font-weight="bold">98g</text>
  <text x="530" y="327" fill="#f59e0b" font-size="11" font-weight="bold">142g</text>
  <text x="600" y="327" fill="#a78bfa" font-size="11" font-weight="bold">48g</text>
  <text x="660" y="327" fill="#86efac" font-size="11">427 kcal remaining</text>

  <!-- Food DB preview -->
  <rect y="336" width="800" height="84" fill="#0f172a"/>
  <text x="20" y="356" fill="#94a3b8" font-size="10" font-weight="bold">FOOD DATABASE (Sheet 2) — 300+ items with auto-VLOOKUP</text>
  <rect y="362" width="800" height="20" fill="#1e293b"/>
  <text x="20" y="376" fill="#64748b" font-size="9">Food Name</text>
  <text x="200" y="376" fill="#64748b" font-size="9">Serving</text>
  <text x="290" y="376" fill="#64748b" font-size="9">Cal</text>
  <text x="340" y="376" fill="#64748b" font-size="9">Protein</text>
  <text x="410" y="376" fill="#64748b" font-size="9">Carbs</text>
  <text x="470" y="376" fill="#64748b" font-size="9">Fat</text>
  <text x="530" y="376" fill="#64748b" font-size="9">Category</text>

  <rect y="382" width="800" height="18" fill="#1e293b" opacity="0.5"/>
  <text x="20" y="395" fill="#e2e8f0" font-size="9">Chicken breast</text>
  <text x="200" y="395" fill="#94a3b8" font-size="9">100g</text>
  <text x="290" y="395" fill="#e2e8f0" font-size="9">165</text>
  <text x="340" y="395" fill="#38bdf8" font-size="9">31.0g</text>
  <text x="410" y="395" fill="#f59e0b" font-size="9">0g</text>
  <text x="470" y="395" fill="#a78bfa" font-size="9">3.6g</text>
  <text x="530" y="395" fill="#4ade80" font-size="9">Protein</text>

  <text x="20" y="410" fill="#475569" font-size="10">PromptCopy.io — Daily Calorie Tracker with 300+ Food VLOOKUP Database</text>
</svg>
