<svg xmlns="http://www.w3.org/2000/svg" viewBox="0 0 800 420" font-family="'Segoe UI', Arial, sans-serif">
  <rect width="800" height="420" fill="#f8fafc"/>
  <rect width="800" height="46" fill="#7c3aed"/>
  <text x="20" y="28" fill="#fff" font-size="16" font-weight="bold">Employee Onboarding Checklist</text>
  <text x="20" y="42" fill="#ddd6fe" font-size="10">New Hire: Alex Johnson  |  Role: Software Engineer  |  Start: Apr 21, 2026  |  Manager: Sarah Kim</text>

  <!-- Phase progress -->
  <rect y="46" width="800" height="52" fill="#4c1d95"/>
  <text x="20" y="66" fill="#c4b5fd" font-size="10">Week 1 — Setup &amp; Orientation</text>
  <rect x="200" y="56" width="360" height="12" rx="6" fill="#3b0764"/>
  <rect x="200" y="56" width="324" height="12" rx="6" fill="#a78bfa"/>
  <text x="570" y="66" fill="#fff" font-size="10" font-weight="bold">90%</text>

  <text x="20" y="88" fill="#c4b5fd" font-size="10">Week 2-4 — Training &amp; Integration</text>
  <rect x="200" y="78" width="360" height="12" rx="6" fill="#3b0764"/>
  <rect x="200" y="78" width="180" height="12" rx="6" fill="#8b5cf6"/>
  <text x="570" y="88" fill="#f59e0b" font-size="10" font-weight="bold">50%</text>

  <!-- Checklist table -->
  <rect y="98" width="800" height="26" fill="#1e293b"/>
  <text x="16" y="116" fill="#94a3b8" font-size="10" font-weight="bold">Task</text>
  <text x="360" y="116" fill="#94a3b8" font-size="10" font-weight="bold">Owner</text>
  <text x="460" y="116" fill="#94a3b8" font-size="10" font-weight="bold">Due</text>
  <text x="560" y="116" fill="#94a3b8" font-size="10" font-weight="bold">Priority</text>
  <text x="660" y="116" fill="#94a3b8" font-size="10" font-weight="bold">Status</text>

  <rect y="124" width="800" height="24" fill="#fff"/>
  <text x="16" y="140" fill="#1e293b" font-size="10">✅ Laptop &amp; equipment setup</text>
  <text x="360" y="140" fill="#64748b" font-size="10">IT Dept</text>
  <text x="460" y="140" fill="#64748b" font-size="10">Day 1</text>
  <rect x="556" y="130" width="56" height="14" rx="7" fill="#fee2e2"/>
  <text x="584" y="141" fill="#dc2626" font-size="9" text-anchor="middle">High</text>
  <rect x="656" y="130" width="60" height="14" rx="7" fill="#dcfce7"/>
  <text x="686" y="141" fill="#15803d" font-size="9" text-anchor="middle">Done ✓</text>

  <rect y="148" width="800" height="24" fill="#f8fafc"/>
  <text x="16" y="164" fill="#1e293b" font-size="10">✅ Email &amp; Slack account created</text>
  <text x="360" y="164" fill="#64748b" font-size="10">IT Dept</text>
  <text x="460" y="164" fill="#64748b" font-size="10">Day 1</text>
  <rect x="556" y="154" width="56" height="14" rx="7" fill="#fee2e2"/>
  <text x="584" y="165" fill="#dc2626" font-size="9" text-anchor="middle">High</text>
  <rect x="656" y="154" width="60" height="14" rx="7" fill="#dcfce7"/>
  <text x="686" y="165" fill="#15803d" font-size="9" text-anchor="middle">Done ✓</text>

  <rect y="172" width="800" height="24" fill="#fff"/>
  <text x="16" y="188" fill="#1e293b" font-size="10">✅ HR paperwork &amp; benefits enrollment</text>
  <text x="360" y="188" fill="#64748b" font-size="10">HR</text>
  <text x="460" y="188" fill="#64748b" font-size="10">Day 2</text>
  <rect x="556" y="178" width="56" height="14" rx="7" fill="#fee2e2"/>
  <text x="584" y="189" fill="#dc2626" font-size="9" text-anchor="middle">High</text>
  <rect x="656" y="178" width="60" height="14" rx="7" fill="#dcfce7"/>
  <text x="686" y="189" fill="#15803d" font-size="9" text-anchor="middle">Done ✓</text>

  <rect y="196" width="800" height="24" fill="#f8fafc"/>
  <text x="16" y="212" fill="#1e293b" font-size="10">🔄 Codebase walkthrough with team lead</text>
  <text x="360" y="212" fill="#64748b" font-size="10">Sarah Kim</text>
  <text x="460" y="212" fill="#64748b" font-size="10">Week 1</text>
  <rect x="556" y="202" width="56" height="14" rx="7" fill="#fef3c7"/>
  <text x="584" y="213" fill="#92400e" font-size="9" text-anchor="middle">Medium</text>
  <rect x="656" y="202" width="60" height="14" rx="7" fill="#fef3c7"/>
  <text x="686" y="213" fill="#92400e" font-size="9" text-anchor="middle">In Prog</text>

  <rect y="220" width="800" height="24" fill="#fff"/>
  <text x="16" y="236" fill="#1e293b" font-size="10">⬜ Complete security training</text>
  <text x="360" y="236" fill="#64748b" font-size="10">Self</text>
  <text x="460" y="236" fill="#64748b" font-size="10">Week 2</text>
  <rect x="556" y="226" width="56" height="14" rx="7" fill="#fef3c7"/>
  <text x="584" y="237" fill="#92400e" font-size="9" text-anchor="middle">Medium</text>
  <rect x="656" y="226" width="60" height="14" rx="7" fill="#e0e7ff"/>
  <text x="686" y="237" fill="#4338ca" font-size="9" text-anchor="middle">Pending</text>

  <rect y="244" width="800" height="24" fill="#f8fafc"/>
  <text x="16" y="260" fill="#1e293b" font-size="10">⬜ First project assignment</text>
  <text x="360" y="260" fill="#64748b" font-size="10">Sarah Kim</text>
  <text x="460" y="260" fill="#64748b" font-size="10">Week 3</text>
  <rect x="556" y="250" width="56" height="14" rx="7" fill="#f1f5f9"/>
  <text x="584" y="261" fill="#475569" font-size="9" text-anchor="middle">Normal</text>
  <rect x="656" y="250" width="60" height="14" rx="7" fill="#e0e7ff"/>
  <text x="686" y="261" fill="#4338ca" font-size="9" text-anchor="middle">Pending</text>

  <!-- Summary section -->
  <rect y="282" width="800" height="138" fill="#0f172a"/>
  <text x="20" y="304" fill="#94a3b8" font-size="11" font-weight="bold">ONBOARDING PROGRESS</text>

  <rect x="16" y="312" width="180" height="70" rx="6" fill="#1e293b"/>
  <text x="106" y="332" fill="#94a3b8" font-size="9" text-anchor="middle">Overall Progress</text>
  <text x="106" y="358" fill="#a78bfa" font-size="24" font-weight="bold" text-anchor="middle">70%</text>
  <text x="106" y="374" fill="#8b5cf6" font-size="9" text-anchor="middle">7/10 tasks done</text>

  <rect x="204" y="312" width="180" height="70" rx="6" fill="#1e293b"/>
  <text x="294" y="332" fill="#94a3b8" font-size="9" text-anchor="middle">Days Since Start</text>
  <text x="294" y="358" fill="#f1f5f9" font-size="24" font-weight="bold" text-anchor="middle">7</text>
  <text x="294" y="374" fill="#94a3b8" font-size="9" text-anchor="middle">30-day plan on track</text>

  <rect x="392" y="312" width="180" height="70" rx="6" fill="#1e293b"/>
  <text x="482" y="332" fill="#94a3b8" font-size="9" text-anchor="middle">Next Action</text>
  <text x="482" y="352" fill="#fbbf24" font-size="13" font-weight="bold" text-anchor="middle">Security</text>
  <text x="482" y="368" fill="#fbbf24" font-size="13" font-weight="bold" text-anchor="middle">Training</text>
  <text x="482" y="380" fill="#f59e0b" font-size="9" text-anchor="middle">Due: Apr 28</text>

  <rect x="580" y="312" width="204" height="70" rx="6" fill="#1e293b"/>
  <text x="682" y="332" fill="#94a3b8" font-size="9" text-anchor="middle">30-Day Checkpoint</text>
  <text x="682" y="358" fill="#34d399" font-size="24" font-weight="bold" text-anchor="middle">May 21</text>
  <text x="682" y="374" fill="#94a3b8" font-size="9" text-anchor="middle">Review scheduled</text>

  <text x="16" y="413" fill="#475569" font-size="10">PromptCopy.io — Employee Onboarding Checklist Template</text>
</svg>
