<svg xmlns="http://www.w3.org/2000/svg" viewBox="0 0 800 420" font-family="'Segoe UI', Arial, sans-serif">
  <rect width="800" height="420" fill="#f8fafc"/>
  <rect width="800" height="46" fill="#0f766e"/>
  <text x="20" y="28" fill="#fff" font-size="16" font-weight="bold">Freelancer Rate &amp; Revenue Calculator</text>
  <text x="20" y="42" fill="#99f6e4" font-size="10">UX Designer  |  Minimum Rate: $68/hr  |  Target: $5,000/mo  |  Tax Reserve: 28%</text>

  <!-- Left: Rate Calculator -->
  <rect x="0" y="46" width="380" height="250" fill="#fff"/>
  <rect x="0" y="46" width="380" height="28" fill="#134e4a"/>
  <text x="14" y="64" fill="#5eead4" font-size="11" font-weight="bold">RATE CALCULATOR</text>

  <rect x="10" y="82" width="360" height="200" rx="6" fill="#f0fdfa"/>

  <text x="20" y="102" fill="#0f766e" font-size="10" font-weight="bold">Monthly Living Expenses</text>
  <text x="20" y="118" fill="#475569" font-size="10">Rent / Mortgage</text><text x="320" y="118" fill="#1e293b" font-size="10" text-anchor="end">$1,800</text>
  <text x="20" y="133" fill="#475569" font-size="10">Food &amp; Groceries</text><text x="320" y="133" fill="#1e293b" font-size="10" text-anchor="end">$600</text>
  <text x="20" y="148" fill="#475569" font-size="10">Health Insurance (self-pay)</text><text x="320" y="148" fill="#1e293b" font-size="10" text-anchor="end">$420</text>
  <text x="20" y="163" fill="#475569" font-size="10">Software &amp; Tools (Adobe, Figma)</text><text x="320" y="163" fill="#1e293b" font-size="10" text-anchor="end">$110</text>
  <text x="20" y="178" fill="#475569" font-size="10">Other expenses</text><text x="320" y="178" fill="#1e293b" font-size="10" text-anchor="end">$670</text>

  <line x1="20" y1="186" x2="360" y2="186" stroke="#d1fae5" stroke-width="1"/>
  <text x="20" y="200" fill="#0f766e" font-size="10" font-weight="bold">Total Monthly Need</text><text x="320" y="200" fill="#0f766e" font-size="11" font-weight="bold" text-anchor="end">$3,600</text>

  <text x="20" y="220" fill="#475569" font-size="10">Billable hours/week: 25  ×  48 weeks = 1,200 hrs/yr</text>
  <text x="20" y="234" fill="#475569" font-size="10">Non-billable overhead: 30%  →  Total hours: 1,714/yr</text>

  <line x1="20" y1="242" x2="360" y2="242" stroke="#d1fae5" stroke-width="1"/>

  <rect x="20" y="248" width="350" height="28" rx="6" fill="#0f766e"/>
  <text x="195" y="261" fill="#fff" font-size="10" text-anchor="middle">MINIMUM HOURLY RATE</text>
  <text x="195" y="273" fill="#5eead4" font-size="14" font-weight="bold" text-anchor="middle">$68 / hour</text>

  <!-- Rate tiers -->
  <rect x="0" y="296" width="380" height="110" fill="#0f172a"/>
  <text x="14" y="316" fill="#5eead4" font-size="10" font-weight="bold">RATE TIERS</text>
  <rect x="14" y="322" width="84" height="50" rx="4" fill="#1e293b"/>
  <text x="56" y="340" fill="#94a3b8" font-size="8" text-anchor="middle">Survival</text>
  <text x="56" y="358" fill="#f87171" font-size="14" font-weight="bold" text-anchor="middle">$68</text>
  <text x="56" y="368" fill="#94a3b8" font-size="7" text-anchor="middle">break-even</text>

  <rect x="106" y="322" width="84" height="50" rx="4" fill="#1e293b"/>
  <text x="148" y="340" fill="#94a3b8" font-size="8" text-anchor="middle">Comfortable</text>
  <text x="148" y="358" fill="#f59e0b" font-size="14" font-weight="bold" text-anchor="middle">$82</text>
  <text x="148" y="368" fill="#94a3b8" font-size="7" text-anchor="middle">+20% profit</text>

  <rect x="198" y="322" width="84" height="50" rx="4" fill="#1e293b"/>
  <text x="240" y="340" fill="#94a3b8" font-size="8" text-anchor="middle">Growth</text>
  <text x="240" y="358" fill="#38bdf8" font-size="14" font-weight="bold" text-anchor="middle">$102</text>
  <text x="240" y="368" fill="#94a3b8" font-size="7" text-anchor="middle">+50% profit</text>

  <rect x="290" y="322" width="84" height="50" rx="4" fill="#0f766e"/>
  <text x="332" y="340" fill="#a7f3d0" font-size="8" text-anchor="middle">Market</text>
  <text x="332" y="358" fill="#fff" font-size="14" font-weight="bold" text-anchor="middle">$136</text>
  <text x="332" y="368" fill="#a7f3d0" font-size="7" text-anchor="middle">+100% profit</text>

  <text x="14" y="396" fill="#475569" font-size="9">Your current rate: $95/hr  |  Recommended: at least $102/hr</text>

  <!-- Right: Client Tracker -->
  <rect x="380" y="46" width="420" height="360" fill="#1e293b"/>
  <rect x="380" y="46" width="420" height="28" fill="#134e4a"/>
  <text x="394" y="64" fill="#5eead4" font-size="11" font-weight="bold">CLIENT &amp; PROJECT TRACKER</text>

  <!-- Table headers -->
  <rect x="380" y="74" width="420" height="22" fill="#0f172a"/>
  <text x="390" y="89" fill="#64748b" font-size="9">Client</text>
  <text x="490" y="89" fill="#64748b" font-size="9">Project</text>
  <text x="590" y="89" fill="#64748b" font-size="9">Rate</text>
  <text x="630" y="89" fill="#64748b" font-size="9">Hours</text>
  <text x="670" y="89" fill="#64748b" font-size="9">Revenue</text>
  <text x="730" y="89" fill="#64748b" font-size="9">Status</text>

  <!-- Projects -->
  <rect x="380" y="96" width="420" height="22" fill="#1e293b"/>
  <text x="390" y="111" fill="#e2e8f0" font-size="9">TechStart Co.</text>
  <text x="490" y="111" fill="#e2e8f0" font-size="9">App Redesign</text>
  <text x="590" y="111" fill="#e2e8f0" font-size="9">$95/hr</text>
  <text x="630" y="111" fill="#e2e8f0" font-size="9">24h</text>
  <text x="670" y="111" fill="#4ade80" font-size="9">$2,280</text>
  <rect x="728" y="100" width="56" height="14" rx="7" fill="#15803d"/>
  <text x="756" y="111" fill="#fff" font-size="8" text-anchor="middle">Paid</text>

  <rect x="380" y="118" width="420" height="22" fill="#161b22"/>
  <text x="390" y="133" fill="#e2e8f0" font-size="9">RetailBrand</text>
  <text x="490" y="133" fill="#e2e8f0" font-size="9">Brand Identity</text>
  <text x="590" y="133" fill="#e2e8f0" font-size="9">$4,800 flat</text>
  <text x="630" y="133" fill="#e2e8f0" font-size="9">38h</text>
  <text x="670" y="133" fill="#4ade80" font-size="9">$4,800</text>
  <rect x="728" y="122" width="56" height="14" rx="7" fill="#0369a1"/>
  <text x="756" y="133" fill="#fff" font-size="8" text-anchor="middle">Invoiced</text>

  <rect x="380" y="140" width="420" height="22" fill="#1e293b"/>
  <text x="390" y="155" fill="#e2e8f0" font-size="9">HealthApp Inc.</text>
  <text x="490" y="155" fill="#e2e8f0" font-size="9">UX Audit</text>
  <text x="590" y="155" fill="#e2e8f0" font-size="9">$95/hr</text>
  <text x="630" y="155" fill="#e2e8f0" font-size="9">12h</text>
  <text x="670" y="155" fill="#f59e0b" font-size="9">$1,140</text>
  <rect x="728" y="144" width="56" height="14" rx="7" fill="#92400e"/>
  <text x="756" y="155" fill="#fff" font-size="8" text-anchor="middle">Overdue</text>

  <rect x="380" y="162" width="420" height="22" fill="#161b22"/>
  <text x="390" y="177" fill="#e2e8f0" font-size="9">StartupXYZ</text>
  <text x="490" y="177" fill="#e2e8f0" font-size="9">Landing Page</text>
  <text x="590" y="177" fill="#e2e8f0" font-size="9">$95/hr</text>
  <text x="630" y="177" fill="#e2e8f0" font-size="9">18h</text>
  <text x="670" y="177" fill="#94a3b8" font-size="9">$1,710</text>
  <rect x="728" y="166" width="56" height="14" rx="7" fill="#374151"/>
  <text x="756" y="177" fill="#e2e8f0" font-size="8" text-anchor="middle">Active</text>

  <!-- Tax planner -->
  <rect x="380" y="196" width="420" height="28" fill="#0f172a"/>
  <text x="394" y="214" fill="#5eead4" font-size="10" font-weight="bold">Q2 TAX ESTIMATE (Apr–Jun 2026)</text>

  <rect x="388" y="228" width="196" height="90" rx="6" fill="#0f172a"/>
  <text x="486" y="246" fill="#94a3b8" font-size="9" text-anchor="middle">Revenue Projection</text>
  <text x="486" y="268" fill="#f1f5f9" font-size="20" font-weight="bold" text-anchor="middle">$14,400</text>
  <text x="486" y="286" fill="#94a3b8" font-size="9" text-anchor="middle">3 months × $4,800/mo</text>
  <line x1="406" y1="295" x2="566" y2="295" stroke="#21262d" stroke-width="1"/>
  <text x="406" y="310" fill="#94a3b8" font-size="9">SE Tax (15.3%)</text><text x="566" y="310" fill="#f87171" font-size="9" text-anchor="end">$2,203</text>
  <text x="406" y="324" fill="#94a3b8" font-size="9">Federal Income Tax</text><text x="566" y="324" fill="#f87171" font-size="9" text-anchor="end">$1,872</text>

  <rect x="592" y="228" width="196" height="90" rx="6" fill="#0f172a"/>
  <text x="690" y="246" fill="#94a3b8" font-size="9" text-anchor="middle">Q2 Est. Payment Due</text>
  <text x="690" y="268" fill="#f87171" font-size="20" font-weight="bold" text-anchor="middle">$4,075</text>
  <text x="690" y="286" fill="#94a3b8" font-size="9" text-anchor="middle">Due: Jun 15, 2026</text>
  <line x1="610" y1="295" x2="770" y2="295" stroke="#21262d" stroke-width="1"/>
  <text x="610" y="310" fill="#94a3b8" font-size="9">Set aside monthly</text><text x="770" y="310" fill="#f87171" font-size="9" text-anchor="end">$1,358</text>
  <text x="610" y="324" fill="#94a3b8" font-size="9">Effective rate</text><text x="770" y="324" fill="#f87171" font-size="9" text-anchor="end">28.3%</text>

  <text x="390" y="410" fill="#475569" font-size="10">PromptCopy.io — Freelancer Rate Calculator &amp; Tax Planner</text>
</svg>
