<svg xmlns="http://www.w3.org/2000/svg" viewBox="0 0 800 420" font-family="'Segoe UI', Arial, sans-serif">
  <rect width="800" height="420" fill="#f8fafc"/>
  <rect width="800" height="50" fill="#1e293b"/>
  <text x="20" y="32" fill="#f1f5f9" font-size="16" font-weight="bold">30-Day Habit Tracker — April 2026</text>

  <!-- Column day numbers -->
  <rect y="50" width="800" height="28" fill="#334155"/>
  <text x="130" y="69" fill="#94a3b8" font-size="9" font-weight="bold">Habit</text>
  <!-- Days 1-20 shown -->
  <g fill="#94a3b8" font-size="9">
    <text x="235" y="69">1</text><text x="255" y="69">2</text><text x="275" y="69">3</text>
    <text x="295" y="69">4</text><text x="315" y="69">5</text><text x="335" y="69">6</text>
    <text x="355" y="69">7</text><text x="375" y="69">8</text><text x="395" y="69">9</text>
    <text x="412" y="69">10</text><text x="432" y="69">11</text><text x="452" y="69">12</text>
    <text x="472" y="69">13</text><text x="492" y="69">14</text><text x="512" y="69">15</text>
    <text x="532" y="69">16</text><text x="552" y="69">17</text><text x="572" y="69">…</text>
    <text x="620" y="69" fill="#e2e8f0">Total</text>
    <text x="668" y="69" fill="#e2e8f0">%</text>
    <text x="710" y="69" fill="#e2e8f0">Streak</text>
  </g>

  <!-- Habit rows -->
  <!-- Morning Run -->
  <rect y="78" width="800" height="26" fill="#fff"/>
  <text x="16" y="96" fill="#1e293b" font-size="11">🏃 Morning Run</text>
  <g fill="#dcfce7">
    <rect x="230" y="81" width="18" height="18" rx="3"/>
    <rect x="250" y="81" width="18" height="18" rx="3"/>
    <rect x="270" y="81" width="18" height="18" rx="3"/>
    <rect x="290" y="81" width="18" height="18" rx="3"/>
    <rect x="310" y="81" width="18" height="18" rx="3"/>
    <rect x="330" y="81" width="18" height="18" rx="3" fill="#e2e8f0"/>
    <rect x="350" y="81" width="18" height="18" rx="3"/>
    <rect x="370" y="81" width="18" height="18" rx="3"/>
    <rect x="390" y="81" width="18" height="18" rx="3"/>
    <rect x="410" y="81" width="18" height="18" rx="3"/>
    <rect x="430" y="81" width="18" height="18" rx="3"/>
    <rect x="450" y="81" width="18" height="18" rx="3" fill="#e2e8f0"/>
    <rect x="470" y="81" width="18" height="18" rx="3"/>
    <rect x="490" y="81" width="18" height="18" rx="3"/>
    <rect x="510" y="81" width="18" height="18" rx="3"/>
    <rect x="530" y="81" width="18" height="18" rx="3"/>
    <rect x="550" y="81" width="18" height="18" rx="3"/>
  </g>
  <g fill="#15803d" font-size="9" text-anchor="middle">
    <text x="239" y="94">✓</text><text x="259" y="94">✓</text><text x="279" y="94">✓</text>
    <text x="299" y="94">✓</text><text x="319" y="94">✓</text><text x="359" y="94">✓</text>
    <text x="379" y="94">✓</text><text x="399" y="94">✓</text><text x="419" y="94">✓</text>
    <text x="439" y="94">✓</text><text x="479" y="94">✓</text><text x="499" y="94">✓</text>
    <text x="519" y="94">✓</text><text x="539" y="94">✓</text><text x="559" y="94">✓</text>
  </g>
  <text x="625" y="96" fill="#1e293b" font-size="11" font-weight="bold">15</text>
  <text x="668" y="96" fill="#22c55e" font-size="11" font-weight="bold">88%</text>
  <text x="715" y="96" fill="#22c55e" font-size="11" font-weight="bold">5</text>

  <!-- Read 20 mins -->
  <rect y="104" width="800" height="26" fill="#f8fafc"/>
  <text x="16" y="122" fill="#1e293b" font-size="11">📚 Read 20 mins</text>
  <g fill="#dcfce7">
    <rect x="230" y="107" width="18" height="18" rx="3"/>
    <rect x="250" y="107" width="18" height="18" rx="3"/>
    <rect x="270" y="107" width="18" height="18" rx="3" fill="#e2e8f0"/>
    <rect x="290" y="107" width="18" height="18" rx="3"/>
    <rect x="310" y="107" width="18" height="18" rx="3"/>
    <rect x="330" y="107" width="18" height="18" rx="3"/>
    <rect x="350" y="107" width="18" height="18" rx="3"/>
    <rect x="370" y="107" width="18" height="18" rx="3" fill="#e2e8f0"/>
    <rect x="390" y="107" width="18" height="18" rx="3"/>
    <rect x="410" y="107" width="18" height="18" rx="3"/>
    <rect x="430" y="107" width="18" height="18" rx="3"/>
    <rect x="450" y="107" width="18" height="18" rx="3"/>
    <rect x="470" y="107" width="18" height="18" rx="3"/>
    <rect x="490" y="107" width="18" height="18" rx="3"/>
    <rect x="510" y="107" width="18" height="18" rx="3" fill="#e2e8f0"/>
    <rect x="530" y="107" width="18" height="18" rx="3"/>
    <rect x="550" y="107" width="18" height="18" rx="3"/>
  </g>
  <text x="625" y="122" fill="#1e293b" font-size="11" font-weight="bold">14</text>
  <text x="668" y="122" fill="#f59e0b" font-size="11" font-weight="bold">82%</text>
  <text x="715" y="122" fill="#22c55e" font-size="11" font-weight="bold">3</text>

  <!-- Meditate -->
  <rect y="130" width="800" height="26" fill="#fff"/>
  <text x="16" y="148" fill="#1e293b" font-size="11">🧘 Meditate</text>
  <g fill="#dcfce7">
    <rect x="230" y="133" width="18" height="18" rx="3"/>
    <rect x="250" y="133" width="18" height="18" rx="3"/>
    <rect x="270" y="133" width="18" height="18" rx="3"/>
    <rect x="290" y="133" width="18" height="18" rx="3"/>
    <rect x="310" y="133" width="18" height="18" rx="3" fill="#e2e8f0"/>
    <rect x="330" y="133" width="18" height="18" rx="3" fill="#e2e8f0"/>
    <rect x="350" y="133" width="18" height="18" rx="3"/>
    <rect x="370" y="133" width="18" height="18" rx="3"/>
    <rect x="390" y="133" width="18" height="18" rx="3" fill="#e2e8f0"/>
    <rect x="410" y="133" width="18" height="18" rx="3"/>
    <rect x="430" y="133" width="18" height="18" rx="3"/>
    <rect x="450" y="133" width="18" height="18" rx="3"/>
    <rect x="470" y="133" width="18" height="18" rx="3"/>
    <rect x="490" y="133" width="18" height="18" rx="3" fill="#e2e8f0"/>
    <rect x="510" y="133" width="18" height="18" rx="3"/>
    <rect x="530" y="133" width="18" height="18" rx="3"/>
    <rect x="550" y="133" width="18" height="18" rx="3"/>
  </g>
  <text x="625" y="148" fill="#1e293b" font-size="11" font-weight="bold">13</text>
  <text x="668" y="148" fill="#f59e0b" font-size="11" font-weight="bold">76%</text>
  <text x="715" y="148" fill="#22c55e" font-size="11" font-weight="bold">4</text>

  <!-- No Sugar -->
  <rect y="156" width="800" height="26" fill="#f8fafc"/>
  <text x="16" y="174" fill="#1e293b" font-size="11">🚫 No Sugar</text>
  <g>
    <rect x="230" y="159" width="18" height="18" rx="3" fill="#dcfce7"/>
    <rect x="250" y="159" width="18" height="18" rx="3" fill="#dcfce7"/>
    <rect x="270" y="159" width="18" height="18" rx="3" fill="#fee2e2"/>
    <rect x="290" y="159" width="18" height="18" rx="3" fill="#dcfce7"/>
    <rect x="310" y="159" width="18" height="18" rx="3" fill="#dcfce7"/>
    <rect x="330" y="159" width="18" height="18" rx="3" fill="#fee2e2"/>
    <rect x="350" y="159" width="18" height="18" rx="3" fill="#dcfce7"/>
    <rect x="370" y="159" width="18" height="18" rx="3" fill="#dcfce7"/>
    <rect x="390" y="159" width="18" height="18" rx="3" fill="#dcfce7"/>
    <rect x="410" y="159" width="18" height="18" rx="3" fill="#dcfce7"/>
    <rect x="430" y="159" width="18" height="18" rx="3" fill="#fee2e2"/>
    <rect x="450" y="159" width="18" height="18" rx="3" fill="#dcfce7"/>
    <rect x="470" y="159" width="18" height="18" rx="3" fill="#dcfce7"/>
    <rect x="490" y="159" width="18" height="18" rx="3" fill="#dcfce7"/>
    <rect x="510" y="159" width="18" height="18" rx="3" fill="#dcfce7"/>
    <rect x="530" y="159" width="18" height="18" rx="3" fill="#dcfce7"/>
    <rect x="550" y="159" width="18" height="18" rx="3" fill="#dcfce7"/>
  </g>
  <text x="625" y="174" fill="#1e293b" font-size="11" font-weight="bold">14</text>
  <text x="668" y="174" fill="#f59e0b" font-size="11" font-weight="bold">82%</text>
  <text x="715" y="174" fill="#22c55e" font-size="11" font-weight="bold">7</text>

  <!-- Daily completion heatmap row -->
  <rect y="196" width="800" height="22" fill="#0f172a"/>
  <text x="130" y="211" fill="#94a3b8" font-size="9">Daily Score:</text>
  <g>
    <rect x="230" y="199" width="18" height="16" rx="2" fill="#15803d"/><text x="239" y="211" fill="#fff" font-size="7" text-anchor="middle">100</text>
    <rect x="250" y="199" width="18" height="16" rx="2" fill="#15803d"/><text x="259" y="211" fill="#fff" font-size="7" text-anchor="middle">100</text>
    <rect x="270" y="199" width="18" height="16" rx="2" fill="#65a30d"/><text x="279" y="211" fill="#fff" font-size="7" text-anchor="middle">75</text>
    <rect x="290" y="199" width="18" height="16" rx="2" fill="#15803d"/><text x="299" y="211" fill="#fff" font-size="7" text-anchor="middle">100</text>
    <rect x="310" y="199" width="18" height="16" rx="2" fill="#15803d"/><text x="319" y="211" fill="#fff" font-size="7" text-anchor="middle">100</text>
    <rect x="330" y="199" width="18" height="16" rx="2" fill="#ca8a04"/><text x="339" y="211" fill="#fff" font-size="7" text-anchor="middle">50</text>
    <rect x="350" y="199" width="18" height="16" rx="2" fill="#15803d"/><text x="359" y="211" fill="#fff" font-size="7" text-anchor="middle">100</text>
    <rect x="370" y="199" width="18" height="16" rx="2" fill="#65a30d"/><text x="379" y="211" fill="#fff" font-size="7" text-anchor="middle">75</text>
    <rect x="390" y="199" width="18" height="16" rx="2" fill="#65a30d"/><text x="399" y="211" fill="#fff" font-size="7" text-anchor="middle">75</text>
    <rect x="410" y="199" width="18" height="16" rx="2" fill="#15803d"/><text x="419" y="211" fill="#fff" font-size="7" text-anchor="middle">100</text>
    <rect x="430" y="199" width="18" height="16" rx="2" fill="#65a30d"/><text x="439" y="211" fill="#fff" font-size="7" text-anchor="middle">75</text>
    <rect x="450" y="199" width="18" height="16" rx="2" fill="#15803d"/><text x="459" y="211" fill="#fff" font-size="7" text-anchor="middle">100</text>
    <rect x="470" y="199" width="18" height="16" rx="2" fill="#15803d"/><text x="479" y="211" fill="#fff" font-size="7" text-anchor="middle">100</text>
    <rect x="490" y="199" width="18" height="16" rx="2" fill="#65a30d"/><text x="499" y="211" fill="#fff" font-size="7" text-anchor="middle">75</text>
    <rect x="510" y="199" width="18" height="16" rx="2" fill="#65a30d"/><text x="519" y="211" fill="#fff" font-size="7" text-anchor="middle">75</text>
    <rect x="530" y="199" width="18" height="16" rx="2" fill="#15803d"/><text x="539" y="211" fill="#fff" font-size="7" text-anchor="middle">100</text>
    <rect x="550" y="199" width="18" height="16" rx="2" fill="#15803d"/><text x="559" y="211" fill="#fff" font-size="7" text-anchor="middle">100</text>
  </g>

  <!-- Goals section -->
  <rect y="232" width="800" height="188" fill="#1e293b"/>
  <text x="20" y="256" fill="#94a3b8" font-size="11" font-weight="bold">MONTHLY GOALS</text>

  <!-- Goal 1 -->
  <rect x="16" y="264" width="368" height="60" rx="8" fill="#0f172a"/>
  <text x="30" y="284" fill="#e2e8f0" font-size="11">Run 50km total this month</text>
  <text x="30" y="300" fill="#94a3b8" font-size="10">Progress: 34.2km / 50km</text>
  <rect x="30" y="308" width="330" height="8" rx="4" fill="#334155"/>
  <rect x="30" y="308" width="225" height="8" rx="4" fill="#22c55e"/>
  <text x="368" y="316" fill="#22c55e" font-size="9" text-anchor="end">68%</text>

  <!-- Goal 2 -->
  <rect x="400" y="264" width="384" height="60" rx="8" fill="#0f172a"/>
  <text x="414" y="284" fill="#e2e8f0" font-size="11">Read 2 books</text>
  <text x="414" y="300" fill="#94a3b8" font-size="10">Progress: 1.5 books / 2</text>
  <rect x="414" y="308" width="354" height="8" rx="4" fill="#334155"/>
  <rect x="414" y="308" width="265" height="8" rx="4" fill="#38bdf8"/>
  <text x="776" y="316" fill="#38bdf8" font-size="9" text-anchor="end">75%</text>

  <!-- Goal 3 -->
  <rect x="16" y="332" width="368" height="60" rx="8" fill="#0f172a"/>
  <text x="30" y="352" fill="#e2e8f0" font-size="11">Meditate 25 days</text>
  <text x="30" y="368" fill="#94a3b8" font-size="10">Progress: 13 days / 25</text>
  <rect x="30" y="376" width="330" height="8" rx="4" fill="#334155"/>
  <rect x="30" y="376" width="170" height="8" rx="4" fill="#a78bfa"/>
  <text x="368" y="384" fill="#a78bfa" font-size="9" text-anchor="end">52%</text>

  <!-- Goal 4 -->
  <rect x="400" y="332" width="384" height="60" rx="8" fill="#0f172a"/>
  <text x="414" y="352" fill="#e2e8f0" font-size="11">Zero sugar 20 days</text>
  <text x="414" y="368" fill="#94a3b8" font-size="10">Progress: 14 days / 20</text>
  <rect x="414" y="376" width="354" height="8" rx="4" fill="#334155"/>
  <rect x="414" y="376" width="248" height="8" rx="4" fill="#fb923c"/>
  <text x="776" y="384" fill="#fb923c" font-size="9" text-anchor="end">70%</text>

  <text x="16" y="413" fill="#475569" font-size="10">PromptCopy.io — 30-Day Habit &amp; Goal Tracker Template</text>
</svg>
