<svg xmlns="http://www.w3.org/2000/svg" viewBox="0 0 800 420" font-family="'Segoe UI', Arial, sans-serif">
  <!-- Background -->
  <rect width="800" height="420" fill="#f8fafc"/>
  <!-- Header bar -->
  <rect width="800" height="44" fill="#1e293b"/>
  <text x="16" y="28" fill="#94a3b8" font-size="11">A</text>
  <text x="180" y="28" fill="#94a3b8" font-size="11">B</text>
  <text x="310" y="28" fill="#94a3b8" font-size="11">C</text>
  <text x="420" y="28" fill="#94a3b8" font-size="11">D</text>
  <text x="530" y="28" fill="#94a3b8" font-size="11">E — Status</text>
  <text x="680" y="28" fill="#94a3b8" font-size="11">F</text>
  <!-- Column labels row -->
  <rect y="44" width="800" height="32" fill="#334155"/>
  <text x="16" y="65" fill="#e2e8f0" font-size="10" font-weight="bold">Company Name</text>
  <text x="180" y="65" fill="#e2e8f0" font-size="10" font-weight="bold">Position</text>
  <text x="310" y="65" fill="#e2e8f0" font-size="10" font-weight="bold">Source</text>
  <text x="420" y="65" fill="#e2e8f0" font-size="10" font-weight="bold">Applied</text>
  <text x="530" y="65" fill="#e2e8f0" font-size="10" font-weight="bold">Status</text>
  <text x="680" y="65" fill="#e2e8f0" font-size="10" font-weight="bold">Days</text>

  <!-- Row 1 -->
  <rect y="76" width="800" height="30" fill="#ffffff"/>
  <text x="16" y="96" fill="#1e293b" font-size="11">Google</text>
  <text x="180" y="96" fill="#1e293b" font-size="11">Software Engineer</text>
  <text x="310" y="96" fill="#64748b" font-size="11">LinkedIn</text>
  <text x="420" y="96" fill="#64748b" font-size="11">Mar 15</text>
  <rect x="524" y="80" width="100" height="18" rx="9" fill="#bbf7d0"/>
  <text x="574" y="92" fill="#15803d" font-size="10" text-anchor="middle" font-weight="bold">Onsite Interview</text>
  <text x="690" y="96" fill="#ef4444" font-size="11">32</text>

  <!-- Row 2 -->
  <rect y="106" width="800" height="30" fill="#f8fafc"/>
  <text x="16" y="126" fill="#1e293b" font-size="11">Kakao</text>
  <text x="180" y="126" fill="#1e293b" font-size="11">Frontend Developer</text>
  <text x="310" y="126" fill="#64748b" font-size="11">Wanted</text>
  <text x="420" y="126" fill="#64748b" font-size="11">Apr 02</text>
  <rect x="524" y="110" width="90" height="18" rx="9" fill="#fef9c3"/>
  <text x="569" y="122" fill="#92400e" font-size="10" text-anchor="middle" font-weight="bold">Phone Interview</text>
  <text x="690" y="126" fill="#f59e0b" font-size="11">14</text>

  <!-- Row 3 -->
  <rect y="136" width="800" height="30" fill="#ffffff"/>
  <text x="16" y="156" fill="#1e293b" font-size="11">Naver</text>
  <text x="180" y="156" fill="#1e293b" font-size="11">UX Designer</text>
  <text x="310" y="156" fill="#64748b" font-size="11">Company Site</text>
  <text x="420" y="156" fill="#64748b" font-size="11">Apr 08</text>
  <rect x="524" y="140" width="76" height="18" rx="9" fill="#dbeafe"/>
  <text x="562" y="152" fill="#1d4ed8" font-size="10" text-anchor="middle" font-weight="bold">Applied</text>
  <text x="690" y="156" fill="#22c55e" font-size="11">8</text>

  <!-- Row 4 -->
  <rect y="166" width="800" height="30" fill="#f8fafc"/>
  <text x="16" y="186" fill="#1e293b" font-size="11">Line</text>
  <text x="180" y="186" fill="#1e293b" font-size="11">Product Manager</text>
  <text x="310" y="186" fill="#64748b" font-size="11">Jumpit</text>
  <text x="420" y="186" fill="#64748b" font-size="11">Mar 28</text>
  <rect x="524" y="170" width="76" height="18" rx="9" fill="#fee2e2"/>
  <text x="562" y="182" fill="#dc2626" font-size="10" text-anchor="middle" font-weight="bold">Rejected</text>
  <text x="690" y="186" fill="#64748b" font-size="11">19</text>

  <!-- Row 5 -->
  <rect y="196" width="800" height="30" fill="#ffffff"/>
  <text x="16" y="216" fill="#1e293b" font-size="11">Samsung SDS</text>
  <text x="180" y="216" fill="#1e293b" font-size="11">Data Analyst</text>
  <text x="310" y="216" fill="#64748b" font-size="11">Saramin</text>
  <text x="420" y="216" fill="#64748b" font-size="11">Apr 10</text>
  <rect x="524" y="200" width="100" height="18" rx="9" fill="#f0fdf4"/>
  <rect x="524" y="200" width="100" height="18" rx="9" fill="none" stroke="#22c55e" stroke-width="1.5"/>
  <text x="574" y="212" fill="#15803d" font-size="10" text-anchor="middle" font-weight="bold">Offer Received ✓</text>
  <text x="690" y="216" fill="#22c55e" font-size="11">6</text>

  <!-- Row 6 -->
  <rect y="226" width="800" height="30" fill="#f8fafc"/>
  <text x="16" y="246" fill="#1e293b" font-size="11">Coupang</text>
  <text x="180" y="246" fill="#1e293b" font-size="11">Backend Engineer</text>
  <text x="310" y="246" fill="#64748b" font-size="11">Blind</text>
  <text x="420" y="246" fill="#64748b" font-size="11">Apr 12</text>
  <rect x="524" y="230" width="100" height="18" rx="9" fill="#fef3c7"/>
  <text x="574" y="242" fill="#92400e" font-size="10" text-anchor="middle" font-weight="bold">Technical Test</text>
  <text x="690" y="246" fill="#f59e0b" font-size="11">4</text>

  <!-- Dashboard panel -->
  <rect x="0" y="270" width="800" height="150" fill="#1e293b"/>
  <text x="16" y="296" fill="#94a3b8" font-size="10">DASHBOARD</text>

  <rect x="16" y="305" width="160" height="70" rx="8" fill="#0f172a"/>
  <text x="96" y="325" fill="#94a3b8" font-size="10" text-anchor="middle">Total Applied</text>
  <text x="96" y="355" fill="#38bdf8" font-size="28" font-weight="bold" text-anchor="middle">24</text>

  <rect x="192" y="305" width="160" height="70" rx="8" fill="#0f172a"/>
  <text x="272" y="325" fill="#94a3b8" font-size="10" text-anchor="middle">Active Pipeline</text>
  <text x="272" y="355" fill="#a78bfa" font-size="28" font-weight="bold" text-anchor="middle">8</text>

  <rect x="368" y="305" width="160" height="70" rx="8" fill="#0f172a"/>
  <text x="448" y="325" fill="#94a3b8" font-size="10" text-anchor="middle">Response Rate</text>
  <text x="448" y="355" fill="#34d399" font-size="28" font-weight="bold" text-anchor="middle">62%</text>

  <rect x="544" y="305" width="240" height="70" rx="8" fill="#0f172a"/>
  <text x="664" y="325" fill="#94a3b8" font-size="10" text-anchor="middle">Avg Days to Response</text>
  <text x="664" y="355" fill="#fb923c" font-size="28" font-weight="bold" text-anchor="middle">11.4</text>

  <text x="16" y="400" fill="#475569" font-size="10">PromptCopy.io — Job Application Tracker Template</text>
</svg>
