<svg xmlns="http://www.w3.org/2000/svg" viewBox="0 0 800 420" font-family="'Segoe UI', Arial, sans-serif">
  <rect width="800" height="420" fill="#f0fdf4"/>
  <rect width="800" height="46" fill="#16a34a"/>
  <text x="20" y="28" fill="#fff" font-size="16" font-weight="bold">Monthly Budget Tracker — April 2026</text>
  <text x="20" y="42" fill="#bbf7d0" font-size="10">Income: $5,200  |  Total Expenses: $4,180  |  Net Savings: $1,020  |  Savings Rate: 19.6%</text>

  <!-- Progress bars -->
  <rect y="46" width="800" height="52" fill="#166534"/>
  <text x="20" y="66" fill="#86efac" font-size="10">Total Income</text>
  <rect x="120" y="56" width="480" height="12" rx="6" fill="#14532d"/>
  <rect x="120" y="56" width="480" height="12" rx="6" fill="#4ade80"/>
  <text x="610" y="66" fill="#fff" font-size="10" font-weight="bold">$5,200</text>

  <text x="20" y="88" fill="#86efac" font-size="10">Total Spent</text>
  <rect x="120" y="78" width="480" height="12" rx="6" fill="#14532d"/>
  <rect x="120" y="78" width="385" height="12" rx="6" fill="#f59e0b"/>
  <text x="610" y="88" fill="#f59e0b" font-size="10" font-weight="bold">$4,180 (80%)</text>

  <!-- Category table -->
  <rect y="98" width="800" height="26" fill="#1e293b"/>
  <text x="16" y="116" fill="#94a3b8" font-size="10" font-weight="bold">Category</text>
  <text x="260" y="116" fill="#94a3b8" font-size="10" font-weight="bold">Budget</text>
  <text x="340" y="116" fill="#94a3b8" font-size="10" font-weight="bold">Actual</text>
  <text x="420" y="116" fill="#94a3b8" font-size="10" font-weight="bold">Variance</text>
  <text x="500" y="116" fill="#94a3b8" font-size="10" font-weight="bold">Progress</text>

  <!-- Rows -->
  <rect y="124" width="800" height="24" fill="#fff"/>
  <text x="16" y="140" fill="#1e293b" font-size="11">Housing</text>
  <text x="260" y="140" fill="#1e293b" font-size="10">$1,500</text>
  <text x="340" y="140" fill="#1e293b" font-size="10">$1,500</text>
  <text x="420" y="140" fill="#64748b" font-size="10">$0</text>
  <rect x="500" y="130" width="200" height="10" rx="5" fill="#e2e8f0"/>
  <rect x="500" y="130" width="200" height="10" rx="5" fill="#22c55e"/>
  <text x="710" y="140" fill="#22c55e" font-size="9">100%</text>

  <rect y="148" width="800" height="24" fill="#f8fafc"/>
  <text x="16" y="164" fill="#1e293b" font-size="11">Food</text>
  <text x="260" y="164" fill="#1e293b" font-size="10">$600</text>
  <text x="340" y="164" fill="#1e293b" font-size="10">$682</text>
  <text x="420" y="164" fill="#ef4444" font-size="10">-$82</text>
  <rect x="500" y="154" width="200" height="10" rx="5" fill="#e2e8f0"/>
  <rect x="500" y="154" width="200" height="10" rx="5" fill="#ef4444"/>
  <text x="710" y="164" fill="#ef4444" font-size="9">114%</text>

  <rect y="172" width="800" height="24" fill="#fff"/>
  <text x="16" y="188" fill="#1e293b" font-size="11">Transport</text>
  <text x="260" y="188" fill="#1e293b" font-size="10">$400</text>
  <text x="340" y="188" fill="#1e293b" font-size="10">$320</text>
  <text x="420" y="188" fill="#22c55e" font-size="10">+$80</text>
  <rect x="500" y="178" width="200" height="10" rx="5" fill="#e2e8f0"/>
  <rect x="500" y="178" width="160" height="10" rx="5" fill="#22c55e"/>
  <text x="710" y="188" fill="#22c55e" font-size="9">80%</text>

  <rect y="196" width="800" height="24" fill="#f8fafc"/>
  <text x="16" y="212" fill="#1e293b" font-size="11">Health &amp; Fitness</text>
  <text x="260" y="212" fill="#1e293b" font-size="10">$200</text>
  <text x="340" y="212" fill="#1e293b" font-size="10">$185</text>
  <text x="420" y="212" fill="#22c55e" font-size="10">+$15</text>
  <rect x="500" y="202" width="200" height="10" rx="5" fill="#e2e8f0"/>
  <rect x="500" y="202" width="185" height="10" rx="5" fill="#22c55e"/>
  <text x="710" y="212" fill="#22c55e" font-size="9">93%</text>

  <rect y="220" width="800" height="24" fill="#fff"/>
  <text x="16" y="236" fill="#1e293b" font-size="11">Entertainment</text>
  <text x="260" y="236" fill="#1e293b" font-size="10">$300</text>
  <text x="340" y="236" fill="#1e293b" font-size="10">$248</text>
  <text x="420" y="236" fill="#22c55e" font-size="10">+$52</text>
  <rect x="500" y="226" width="200" height="10" rx="5" fill="#e2e8f0"/>
  <rect x="500" y="226" width="165" height="10" rx="5" fill="#f59e0b"/>
  <text x="710" y="236" fill="#f59e0b" font-size="9">83%</text>

  <rect y="244" width="800" height="24" fill="#f8fafc"/>
  <text x="16" y="260" fill="#1e293b" font-size="11">Savings</text>
  <text x="260" y="260" fill="#1e293b" font-size="10">$800</text>
  <text x="340" y="260" fill="#1e293b" font-size="10">$800</text>
  <text x="420" y="260" fill="#64748b" font-size="10">$0</text>
  <rect x="500" y="250" width="200" height="10" rx="5" fill="#e2e8f0"/>
  <rect x="500" y="250" width="200" height="10" rx="5" fill="#6366f1"/>
  <text x="710" y="260" fill="#6366f1" font-size="9">100%</text>

  <!-- Summary cards -->
  <rect y="282" width="800" height="138" fill="#0f172a"/>
  <text x="20" y="304" fill="#94a3b8" font-size="11" font-weight="bold">MONTHLY COMPARISON</text>

  <rect x="16" y="312" width="180" height="70" rx="6" fill="#1e293b"/>
  <text x="106" y="332" fill="#94a3b8" font-size="9" text-anchor="middle">Net Savings</text>
  <text x="106" y="358" fill="#4ade80" font-size="24" font-weight="bold" text-anchor="middle">$1,020</text>
  <text x="106" y="374" fill="#22c55e" font-size="9" text-anchor="middle">▲ +$180 vs last month</text>

  <rect x="204" y="312" width="180" height="70" rx="6" fill="#1e293b"/>
  <text x="294" y="332" fill="#94a3b8" font-size="9" text-anchor="middle">Savings Rate</text>
  <text x="294" y="358" fill="#f1f5f9" font-size="24" font-weight="bold" text-anchor="middle">19.6%</text>
  <text x="294" y="374" fill="#22c55e" font-size="9" text-anchor="middle">Goal: 20%</text>

  <rect x="392" y="312" width="180" height="70" rx="6" fill="#1e293b"/>
  <text x="482" y="332" fill="#94a3b8" font-size="9" text-anchor="middle">Over Budget</text>
  <text x="482" y="358" fill="#f87171" font-size="24" font-weight="bold" text-anchor="middle">Food</text>
  <text x="482" y="374" fill="#f87171" font-size="9" text-anchor="middle">-$82 over limit</text>

  <rect x="580" y="312" width="204" height="70" rx="6" fill="#1e293b"/>
  <text x="682" y="332" fill="#94a3b8" font-size="9" text-anchor="middle">Annual Projection</text>
  <text x="682" y="358" fill="#34d399" font-size="24" font-weight="bold" text-anchor="middle">$12,240</text>
  <text x="682" y="374" fill="#94a3b8" font-size="9" text-anchor="middle">saved this year</text>

  <text x="16" y="413" fill="#475569" font-size="10">PromptCopy.io — Monthly Budget Tracker Template</text>
</svg>
