<svg xmlns="http://www.w3.org/2000/svg" viewBox="0 0 800 420" font-family="'Segoe UI', Arial, sans-serif">
  <rect width="800" height="420" fill="#f8fafc"/>
  <rect width="800" height="46" fill="#0369a1"/>
  <text x="20" y="28" fill="#fff" font-size="16" font-weight="bold">Sales Performance Dashboard — Q1 2026</text>
  <text x="20" y="42" fill="#bae6fd" font-size="10">Acme Corp  |  Team: 8 Reps  |  Currency: USD  |  Target: $500,000</text>

  <!-- KPI tiles -->
  <rect y="46" width="800" height="90" fill="#0c4a6e"/>
  <rect x="12" y="54" width="180" height="74" rx="8" fill="#0369a1"/>
  <text x="102" y="76" fill="#bae6fd" font-size="10" text-anchor="middle">Total Revenue</text>
  <text x="102" y="102" fill="#fff" font-size="22" font-weight="bold" text-anchor="middle">$423,800</text>
  <text x="102" y="118" fill="#4ade80" font-size="10" text-anchor="middle">▲ 84.8% of target</text>

  <rect x="200" y="54" width="180" height="74" rx="8" fill="#0369a1"/>
  <text x="290" y="76" fill="#bae6fd" font-size="10" text-anchor="middle">New Deals Closed</text>
  <text x="290" y="102" fill="#fff" font-size="22" font-weight="bold" text-anchor="middle">47</text>
  <text x="290" y="118" fill="#4ade80" font-size="10" text-anchor="middle">▲ +12 vs last quarter</text>

  <rect x="388" y="54" width="180" height="74" rx="8" fill="#0369a1"/>
  <text x="478" y="76" fill="#bae6fd" font-size="10" text-anchor="middle">Win Rate</text>
  <text x="478" y="102" fill="#fff" font-size="22" font-weight="bold" text-anchor="middle">38.2%</text>
  <text x="478" y="118" fill="#f87171" font-size="10" text-anchor="middle">▼ -2.1% vs last Q</text>

  <rect x="576" y="54" width="212" height="74" rx="8" fill="#0369a1"/>
  <text x="682" y="76" fill="#bae6fd" font-size="10" text-anchor="middle">Avg Deal Size</text>
  <text x="682" y="102" fill="#fff" font-size="22" font-weight="bold" text-anchor="middle">$9,017</text>
  <text x="682" y="118" fill="#4ade80" font-size="10" text-anchor="middle">▲ +$840 vs last Q</text>

  <!-- Rep performance table -->
  <rect y="136" width="800" height="26" fill="#1e293b"/>
  <text x="16" y="154" fill="#94a3b8" font-size="10" font-weight="bold">Sales Rep</text>
  <text x="180" y="154" fill="#94a3b8" font-size="10" font-weight="bold">Region</text>
  <text x="260" y="154" fill="#94a3b8" font-size="10" font-weight="bold">Target</text>
  <text x="340" y="154" fill="#94a3b8" font-size="10" font-weight="bold">Actual</text>
  <text x="420" y="154" fill="#94a3b8" font-size="10" font-weight="bold">Attainment</text>
  <text x="510" y="154" fill="#94a3b8" font-size="10" font-weight="bold">Deals</text>
  <text x="570" y="154" fill="#94a3b8" font-size="10" font-weight="bold">Progress</text>

  <!-- Rows -->
  <rect y="162" width="800" height="24" fill="#fff"/>
  <text x="16" y="178" fill="#1e293b" font-size="10">01  Kim, Sarah</text>
  <text x="180" y="178" fill="#64748b" font-size="10">West</text>
  <text x="260" y="178" fill="#1e293b" font-size="10">$62,500</text>
  <text x="340" y="178" fill="#1e293b" font-size="10">$78,400</text>
  <text x="420" y="178" fill="#22c55e" font-size="10" font-weight="bold">125%</text>
  <text x="510" y="178" fill="#1e293b" font-size="10">9</text>
  <rect x="568" y="168" width="180" height="10" rx="5" fill="#e2e8f0"/>
  <rect x="568" y="168" width="180" height="10" rx="5" fill="#22c55e"/>

  <rect y="186" width="800" height="24" fill="#f8fafc"/>
  <text x="16" y="202" fill="#1e293b" font-size="10">02  Park, James</text>
  <text x="180" y="202" fill="#64748b" font-size="10">East</text>
  <text x="260" y="202" fill="#1e293b" font-size="10">$62,500</text>
  <text x="340" y="202" fill="#1e293b" font-size="10">$71,200</text>
  <text x="420" y="202" fill="#22c55e" font-size="10" font-weight="bold">114%</text>
  <text x="510" y="202" fill="#1e293b" font-size="10">8</text>
  <rect x="568" y="192" width="180" height="10" rx="5" fill="#e2e8f0"/>
  <rect x="568" y="192" width="180" height="10" rx="5" fill="#22c55e"/>

  <rect y="210" width="800" height="24" fill="#fff"/>
  <text x="16" y="226" fill="#1e293b" font-size="10">Lee, David</text>
  <text x="180" y="226" fill="#64748b" font-size="10">Central</text>
  <text x="260" y="226" fill="#1e293b" font-size="10">$62,500</text>
  <text x="340" y="226" fill="#1e293b" font-size="10">$58,900</text>
  <text x="420" y="226" fill="#f59e0b" font-size="10" font-weight="bold">94%</text>
  <text x="510" y="226" fill="#1e293b" font-size="10">7</text>
  <rect x="568" y="216" width="180" height="10" rx="5" fill="#e2e8f0"/>
  <rect x="568" y="216" width="169" height="10" rx="5" fill="#f59e0b"/>

  <rect y="234" width="800" height="24" fill="#f8fafc"/>
  <text x="16" y="250" fill="#1e293b" font-size="10">Chen, Amy</text>
  <text x="180" y="250" fill="#64748b" font-size="10">South</text>
  <text x="260" y="250" fill="#1e293b" font-size="10">$62,500</text>
  <text x="340" y="250" fill="#1e293b" font-size="10">$44,200</text>
  <text x="420" y="250" fill="#ef4444" font-size="10" font-weight="bold">71%</text>
  <text x="510" y="250" fill="#1e293b" font-size="10">5</text>
  <rect x="568" y="240" width="180" height="10" rx="5" fill="#e2e8f0"/>
  <rect x="568" y="240" width="128" height="10" rx="5" fill="#ef4444"/>

  <!-- Pipeline funnel + chart -->
  <rect y="272" width="800" height="148" fill="#0f172a"/>
  <text x="20" y="292" fill="#94a3b8" font-size="11" font-weight="bold">SALES PIPELINE FUNNEL</text>

  <!-- Funnel bars -->
  <rect x="16" y="300" width="320" height="22" rx="4" fill="#3b82f6"/>
  <text x="26" y="315" fill="#fff" font-size="10">Leads: 312</text>
  <rect x="16" y="328" width="240" height="22" rx="4" fill="#6366f1"/>
  <text x="26" y="343" fill="#fff" font-size="10">Qualified: 186</text>
  <rect x="16" y="356" width="160" height="22" rx="4" fill="#8b5cf6"/>
  <text x="26" y="371" fill="#fff" font-size="10">Proposal: 94</text>
  <rect x="16" y="384" width="80" height="22" rx="4" fill="#a855f7"/>
  <text x="26" y="399" fill="#fff" font-size="10">Closed: 47</text>

  <!-- Monthly chart -->
  <rect x="360" y="296" width="424" height="112" rx="6" fill="#1e293b"/>
  <text x="572" y="314" fill="#94a3b8" font-size="9" text-anchor="middle">Monthly Revenue</text>
  <!-- Bars -->
  <rect x="380" y="360" width="50" height="40" fill="#3b82f6"/><text x="405" y="356" fill="#94a3b8" font-size="8" text-anchor="middle">$128K</text><text x="405" y="396" fill="#94a3b8" font-size="8" text-anchor="middle">Jan</text>
  <rect x="450" y="340" width="50" height="60" fill="#3b82f6"/><text x="475" y="336" fill="#94a3b8" font-size="8" text-anchor="middle">$152K</text><text x="475" y="396" fill="#94a3b8" font-size="8" text-anchor="middle">Feb</text>
  <rect x="520" y="330" width="50" height="70" fill="#4ade80"/><text x="545" y="326" fill="#4ade80" font-size="8" text-anchor="middle">$174K</text><text x="545" y="396" fill="#94a3b8" font-size="8" text-anchor="middle">Mar</text>
  <line x1="380" y1="325" x2="630" y2="325" stroke="#374151" stroke-dasharray="4,2" stroke-width="1"/>
  <text x="636" y="329" fill="#94a3b8" font-size="8">Target</text>

  <text x="16" y="414" fill="#475569" font-size="10">PromptCopy.io — Sales Performance Dashboard Template</text>
</svg>
