<svg xmlns="http://www.w3.org/2000/svg" viewBox="0 0 800 420" font-family="'Courier New', monospace">
  <rect width="800" height="420" fill="#0d1117"/>
  <!-- Header -->
  <rect width="800" height="46" fill="#161b22"/>
  <text x="16" y="22" fill="#58a6ff" font-size="14" font-weight="bold">📊 Global Stock Market Dashboard</text>
  <text x="16" y="40" fill="#8b949e" font-size="10">Live via GOOGLEFINANCE  |  15-min delay  |  Updated: Apr 17, 2026 09:31 AM</text>
  <rect x="640" y="10" width="148" height="26" rx="4" fill="#1f6feb" opacity="0.3"/>
  <rect x="640" y="10" width="148" height="26" rx="4" fill="none" stroke="#1f6feb" stroke-width="1"/>
  <text x="714" y="27" fill="#58a6ff" font-size="10" text-anchor="middle">⟳ Auto-Refresh</text>

  <!-- US Panel -->
  <rect x="0" y="46" width="400" height="186" fill="#161b22"/>
  <rect x="0" y="46" width="400" height="26" fill="#1f6feb" opacity="0.2"/>
  <text x="12" y="63" fill="#58a6ff" font-size="11" font-weight="bold">🇺🇸 US MARKETS</text>

  <!-- Indices -->
  <rect x="8" y="76" width="384" height="20" rx="3" fill="#21262d"/>
  <text x="14" y="90" fill="#c9d1d9" font-size="10">S&amp;P 500</text>
  <text x="120" y="90" fill="#c9d1d9" font-size="10">5,234.18</text>
  <text x="200" y="90" fill="#3fb950" font-size="10">▲ +0.82%</text>
  <rect x="280" y="79" width="104" height="12" rx="2" fill="#1a3728"/>
  <rect x="280" y="79" width="95" height="12" rx="2" fill="#3fb950" opacity="0.7"/>

  <rect x="8" y="100" width="384" height="20" rx="3" fill="#161b22"/>
  <text x="14" y="114" fill="#c9d1d9" font-size="10">NASDAQ</text>
  <text x="120" y="114" fill="#c9d1d9" font-size="10">16,428.82</text>
  <text x="200" y="114" fill="#3fb950" font-size="10">▲ +1.24%</text>
  <rect x="280" y="103" width="104" height="12" rx="2" fill="#1a3728"/>
  <rect x="280" y="103" width="104" height="12" rx="2" fill="#3fb950" opacity="0.9"/>

  <!-- Tech sector -->
  <rect x="8" y="126" width="384" height="18" rx="2" fill="#1f2937"/>
  <text x="14" y="139" fill="#58a6ff" font-size="9" font-weight="bold">💻 TECHNOLOGY</text>

  <g font-size="9">
    <text x="14" y="154" fill="#8b949e">AAPL</text><text x="60" y="154" fill="#c9d1d9">$184.32</text><text x="120" y="154" fill="#3fb950">▲ +0.48%</text>
    <text x="200" y="154" fill="#8b949e">MSFT</text><text x="246" y="154" fill="#c9d1d9">$418.62</text><text x="306" y="154" fill="#3fb950">▲ +1.12%</text>

    <text x="14" y="168" fill="#8b949e">NVDA</text><text x="60" y="168" fill="#c9d1d9">$879.44</text><text x="120" y="168" fill="#3fb950">▲ +2.84%</text>
    <text x="200" y="168" fill="#8b949e">GOOGL</text><text x="246" y="168" fill="#c9d1d9">$175.21</text><text x="306" y="168" fill="#f85149">▼ -0.32%</text>

    <text x="14" y="182" fill="#8b949e">META</text><text x="60" y="182" fill="#c9d1d9">$512.84</text><text x="120" y="182" fill="#3fb950">▲ +1.67%</text>
    <text x="200" y="182" fill="#8b949e">TSLA</text><text x="246" y="182" fill="#c9d1d9">$172.63</text><text x="306" y="182" fill="#f85149">▼ -1.24%</text>
  </g>

  <!-- Finance sector -->
  <rect x="8" y="192" width="384" height="18" rx="2" fill="#1a2f23"/>
  <text x="14" y="205" fill="#3fb950" font-size="9" font-weight="bold">💰 FINANCE</text>
  <g font-size="9">
    <text x="14" y="218" fill="#8b949e">JPM</text><text x="60" y="218" fill="#c9d1d9">$196.42</text><text x="120" y="218" fill="#3fb950">▲ +0.92%</text>
    <text x="200" y="218" fill="#8b949e">GS</text><text x="246" y="218" fill="#c9d1d9">$458.18</text><text x="306" y="218" fill="#3fb950">▲ +0.61%</text>
  </g>

  <!-- Japan Panel -->
  <rect x="400" y="46" width="400" height="186" fill="#161b22"/>
  <rect x="400" y="46" width="400" height="26" fill="#dc2626" opacity="0.2"/>
  <text x="412" y="63" fill="#f87171" font-size="11" font-weight="bold">🇯🇵 JAPAN MARKETS</text>

  <rect x="408" y="76" width="384" height="20" rx="3" fill="#21262d"/>
  <text x="414" y="90" fill="#c9d1d9" font-size="10">Nikkei 225</text>
  <text x="520" y="90" fill="#c9d1d9" font-size="10">38,246.50</text>
  <text x="622" y="90" fill="#3fb950" font-size="10">▲ +0.44%</text>

  <rect x="408" y="100" width="384" height="18" rx="2" fill="#1f2937"/>
  <text x="414" y="113" fill="#f87171" font-size="9" font-weight="bold">🚗 AUTO &amp; TECH</text>
  <g font-size="9">
    <text x="414" y="128" fill="#8b949e">TYO:7203</text><text x="488" y="128" fill="#c9d1d9">Toyota</text><text x="580" y="128" fill="#c9d1d9">¥3,842</text><text x="640" y="128" fill="#3fb950">▲ +0.82%</text>
    <text x="414" y="142" fill="#8b949e">TYO:6758</text><text x="488" y="142" fill="#c9d1d9">Sony</text><text x="580" y="142" fill="#c9d1d9">¥12,845</text><text x="640" y="142" fill="#f85149">▼ -0.54%</text>
    <text x="414" y="156" fill="#8b949e">TYO:7974</text><text x="488" y="156" fill="#c9d1d9">Nintendo</text><text x="580" y="156" fill="#c9d1d9">¥8,264</text><text x="640" y="156" fill="#3fb950">▲ +1.28%</text>
    <text x="414" y="170" fill="#8b949e">TYO:9984</text><text x="488" y="170" fill="#c9d1d9">SoftBank</text><text x="580" y="170" fill="#c9d1d9">¥9,112</text><text x="640" y="170" fill="#3fb950">▲ +2.14%</text>
    <text x="414" y="184" fill="#8b949e">TYO:6861</text><text x="488" y="184" fill="#c9d1d9">Keyence</text><text x="580" y="184" fill="#c9d1d9">¥56,780</text><text x="640" y="184" fill="#f85149">▼ -0.18%</text>
    <text x="414" y="198" fill="#8b949e">TYO:7267</text><text x="488" y="198" fill="#c9d1d9">Honda</text><text x="580" y="198" fill="#c9d1d9">¥1,892</text><text x="640" y="198" fill="#3fb950">▲ +0.96%</text>
  </g>
  <text x="414" y="225" fill="#8b949e" font-size="9">TYO:8306 Mitsubishi UFJ ¥1,284 ▲ +1.44%</text>

  <!-- Korea and China bottom panels -->
  <rect y="232" width="400" height="188" fill="#0d1117"/>
  <rect y="232" width="400" height="24" fill="#1d4ed8" opacity="0.2"/>
  <text x="12" y="248" fill="#60a5fa" font-size="11" font-weight="bold">🇰🇷 KOREA MARKETS</text>
  <g font-size="9">
    <text x="12" y="268" fill="#c9d1d9">KOSPI</text><text x="80" y="268" fill="#c9d1d9">2,648.32</text><text x="180" y="268" fill="#3fb950">▲ +0.68%</text>
    <rect x="8" y="274" width="384" height="16" rx="2" fill="#1f2937"/>
    <text x="12" y="286" fill="#60a5fa" font-size="9" font-weight="bold">🏭 MAJOR STOCKS</text>
    <text x="12" y="301" fill="#8b949e">KRX:005930</text><text x="100" y="301" fill="#c9d1d9">Samsung</text><text x="200" y="301" fill="#c9d1d9">₩73,400</text><text x="290" y="301" fill="#3fb950">▲ +1.06%</text>
    <text x="12" y="315" fill="#8b949e">KRX:000660</text><text x="100" y="315" fill="#c9d1d9">SK Hynix</text><text x="200" y="315" fill="#c9d1d9">₩168,500</text><text x="290" y="315" fill="#3fb950">▲ +2.44%</text>
    <text x="12" y="329" fill="#8b949e">KRX:035420</text><text x="100" y="329" fill="#c9d1d9">NAVER</text><text x="200" y="329" fill="#c9d1d9">₩184,200</text><text x="290" y="329" fill="#f85149">▼ -0.54%</text>
    <text x="12" y="343" fill="#8b949e">KRX:035720</text><text x="100" y="343" fill="#c9d1d9">Kakao</text><text x="200" y="343" fill="#c9d1d9">₩38,750</text><text x="290" y="343" fill="#f85149">▼ -1.22%</text>
    <text x="12" y="357" fill="#8b949e">KRX:005380</text><text x="100" y="357" fill="#c9d1d9">Hyundai</text><text x="200" y="357" fill="#c9d1d9">₩218,000</text><text x="290" y="357" fill="#3fb950">▲ +0.92%</text>
  </g>

  <rect x="400" y="232" width="400" height="188" fill="#0d1117"/>
  <rect x="400" y="232" width="400" height="24" fill="#dc2626" opacity="0.15"/>
  <text x="412" y="248" fill="#fca5a5" font-size="11" font-weight="bold">🇨🇳 CHINA / HK MARKETS</text>
  <g font-size="9">
    <text x="412" y="268" fill="#c9d1d9">Hang Seng</text><text x="490" y="268" fill="#c9d1d9">18,024.90</text><text x="580" y="268" fill="#f85149">▼ -0.32%</text>
    <rect x="408" y="274" width="384" height="16" rx="2" fill="#1f2937"/>
    <text x="412" y="286" fill="#fca5a5" font-size="9" font-weight="bold">🏢 HK LISTED + US ADRs</text>
    <text x="412" y="301" fill="#8b949e">HKG:0700</text><text x="490" y="301" fill="#c9d1d9">Tencent</text><text x="580" y="301" fill="#c9d1d9">HK$348.40</text><text x="694" y="301" fill="#3fb950">▲ +1.84%</text>
    <text x="412" y="315" fill="#8b949e">HKG:9988</text><text x="490" y="315" fill="#c9d1d9">Alibaba HK</text><text x="580" y="315" fill="#c9d1d9">HK$82.15</text><text x="694" y="315" fill="#f85149">▼ -0.62%</text>
    <text x="412" y="329" fill="#8b949e">HKG:1211</text><text x="490" y="329" fill="#c9d1d9">BYD</text><text x="580" y="329" fill="#c9d1d9">HK$228.60</text><text x="694" y="329" fill="#3fb950">▲ +2.44%</text>
    <text x="412" y="343" fill="#8b949e">BABA</text><text x="490" y="343" fill="#c9d1d9">Alibaba ADR</text><text x="580" y="343" fill="#c9d1d9">$82.84</text><text x="694" y="343" fill="#f85149">▼ -0.48%</text>
    <text x="412" y="357" fill="#8b949e">PDD</text><text x="490" y="357" fill="#c9d1d9">PDD Holdings</text><text x="580" y="357" fill="#c9d1d9">$128.42</text><text x="694" y="357" fill="#3fb950">▲ +1.62%</text>
  </g>

  <rect y="404" width="800" height="16" fill="#161b22"/>
  <text x="16" y="415" fill="#484f58" font-size="9">PromptCopy.io — Global Stock Market Dashboard  |  GOOGLEFINANCE formulas  |  15-min delayed data</text>
</svg>
