<svg xmlns="http://www.w3.org/2000/svg" viewBox="0 0 800 420" font-family="'Segoe UI', Arial, sans-serif">
  <rect width="800" height="420" fill="#f8fafc"/>
  <rect width="800" height="46" fill="#1d4ed8"/>
  <text x="20" y="28" fill="#fff" font-size="16" font-weight="bold">Student GPA Calculator — Spring 2026</text>
  <text x="20" y="42" fill="#bfdbfe" font-size="10">Computer Science  |  Year 3  |  Current Cumulative GPA: 3.72  |  Target: 3.80</text>

  <!-- Course table headers -->
  <rect y="46" width="800" height="26" fill="#1e3a8a"/>
  <text x="14" y="64" fill="#93c5fd" font-size="10" font-weight="bold">Course</text>
  <text x="180" y="64" fill="#93c5fd" font-size="10" font-weight="bold">Credits</text>
  <text x="230" y="64" fill="#93c5fd" font-size="10" font-weight="bold">Midterm%</text>
  <text x="310" y="64" fill="#93c5fd" font-size="10" font-weight="bold">Final%</text>
  <text x="380" y="64" fill="#93c5fd" font-size="10" font-weight="bold">Assign%</text>
  <text x="450" y="64" fill="#93c5fd" font-size="10" font-weight="bold">Current%</text>
  <text x="524" y="64" fill="#93c5fd" font-size="10" font-weight="bold">Letter</text>
  <text x="580" y="64" fill="#93c5fd" font-size="10" font-weight="bold">GPA Pts</text>
  <text x="640" y="64" fill="#93c5fd" font-size="10" font-weight="bold">Grade Pts</text>
  <text x="720" y="64" fill="#93c5fd" font-size="10" font-weight="bold">Target</text>

  <!-- Course rows -->
  <rect y="72" width="800" height="26" fill="#fff"/>
  <text x="14" y="90" fill="#1e293b" font-size="10">Algorithms &amp; Data Structures</text>
  <text x="180" y="90" fill="#64748b" font-size="10">3</text>
  <text x="230" y="90" fill="#1e293b" font-size="10">88%</text>
  <text x="310" y="90" fill="#94a3b8" font-size="10">—</text>
  <text x="380" y="90" fill="#1e293b" font-size="10">92%</text>
  <text x="450" y="90" fill="#1d4ed8" font-size="11" font-weight="bold">91.2%</text>
  <rect x="518" y="76" width="46" height="16" rx="8" fill="#dcfce7"/>
  <text x="541" y="88" fill="#15803d" font-size="10" font-weight="bold" text-anchor="middle">A-</text>
  <text x="580" y="90" fill="#1e293b" font-size="10">3.7</text>
  <text x="640" y="90" fill="#1e293b" font-size="10">11.1</text>
  <text x="720" y="90" fill="#22c55e" font-size="10">A</text>

  <rect y="98" width="800" height="26" fill="#f8fafc"/>
  <text x="14" y="116" fill="#1e293b" font-size="10">Machine Learning</text>
  <text x="180" y="116" fill="#64748b" font-size="10">3</text>
  <text x="230" y="116" fill="#1e293b" font-size="10">95%</text>
  <text x="310" y="116" fill="#94a3b8" font-size="10">—</text>
  <text x="380" y="116" fill="#1e293b" font-size="10">97%</text>
  <text x="450" y="116" fill="#1d4ed8" font-size="11" font-weight="bold">96.1%</text>
  <rect x="518" y="102" width="46" height="16" rx="8" fill="#dcfce7"/>
  <text x="541" y="114" fill="#15803d" font-size="10" font-weight="bold" text-anchor="middle">A</text>
  <text x="580" y="116" fill="#1e293b" font-size="10">4.0</text>
  <text x="640" y="116" fill="#1e293b" font-size="10">12.0</text>
  <text x="720" y="116" fill="#22c55e" font-size="10">A</text>

  <rect y="124" width="800" height="26" fill="#fff"/>
  <text x="14" y="142" fill="#1e293b" font-size="10">Database Systems</text>
  <text x="180" y="142" fill="#64748b" font-size="10">3</text>
  <text x="230" y="142" fill="#1e293b" font-size="10">82%</text>
  <text x="310" y="142" fill="#94a3b8" font-size="10">—</text>
  <text x="380" y="142" fill="#1e293b" font-size="10">78%</text>
  <text x="450" y="142" fill="#f59e0b" font-size="11" font-weight="bold">80.4%</text>
  <rect x="518" y="128" width="46" height="16" rx="8" fill="#fef9c3"/>
  <text x="541" y="140" fill="#92400e" font-size="10" font-weight="bold" text-anchor="middle">B-</text>
  <text x="580" y="142" fill="#1e293b" font-size="10">2.7</text>
  <text x="640" y="142" fill="#1e293b" font-size="10">8.1</text>
  <text x="720" y="142" fill="#f59e0b" font-size="10">B+</text>

  <rect y="150" width="800" height="26" fill="#f8fafc"/>
  <text x="14" y="168" fill="#1e293b" font-size="10">Software Engineering</text>
  <text x="180" y="168" fill="#64748b" font-size="10">3</text>
  <text x="230" y="168" fill="#1e293b" font-size="10">90%</text>
  <text x="310" y="168" fill="#94a3b8" font-size="10">—</text>
  <text x="380" y="168" fill="#1e293b" font-size="10">88%</text>
  <text x="450" y="168" fill="#1d4ed8" font-size="11" font-weight="bold">89.2%</text>
  <rect x="518" y="154" width="46" height="16" rx="8" fill="#dcfce7"/>
  <text x="541" y="166" fill="#15803d" font-size="10" font-weight="bold" text-anchor="middle">B+</text>
  <text x="580" y="168" fill="#1e293b" font-size="10">3.3</text>
  <text x="640" y="168" fill="#1e293b" font-size="10">9.9</text>
  <text x="720" y="168" fill="#22c55e" font-size="10">A-</text>

  <rect y="176" width="800" height="26" fill="#fff"/>
  <text x="14" y="194" fill="#1e293b" font-size="10">Operating Systems</text>
  <text x="180" y="194" fill="#64748b" font-size="10">3</text>
  <text x="230" y="194" fill="#1e293b" font-size="10">76%</text>
  <text x="310" y="194" fill="#94a3b8" font-size="10">—</text>
  <text x="380" y="194" fill="#1e293b" font-size="10">82%</text>
  <text x="450" y="194" fill="#ef4444" font-size="11" font-weight="bold">79.6%</text>
  <rect x="518" y="180" width="46" height="16" rx="8" fill="#fef9c3"/>
  <text x="541" y="192" fill="#92400e" font-size="10" font-weight="bold" text-anchor="middle">C+</text>
  <text x="580" y="194" fill="#1e293b" font-size="10">2.3</text>
  <text x="640" y="194" fill="#1e293b" font-size="10">6.9</text>
  <text x="720" y="194" fill="#ef4444" font-size="10">B-</text>

  <!-- Semester GPA row -->
  <rect y="202" width="800" height="28" fill="#1e3a8a"/>
  <text x="14" y="220" fill="#fff" font-size="11" font-weight="bold">Semester GPA</text>
  <text x="180" y="220" fill="#bfdbfe" font-size="11">15 credits</text>
  <text x="450" y="220" fill="#60a5fa" font-size="11">86.9% avg</text>
  <text x="640" y="220" fill="#60a5fa" font-size="11">48.0 pts</text>
  <text x="700" y="220" fill="#4ade80" font-size="14" font-weight="bold">GPA: 3.20</text>

  <!-- What-if simulator + GPA tracker -->
  <rect y="242" width="800" height="178" fill="#1e293b"/>
  <text x="20" y="264" fill="#94a3b8" font-size="11" font-weight="bold">WHAT-IF FINAL GRADE SIMULATOR</text>

  <!-- Simulator table -->
  <rect x="16" y="272" width="460" height="110" rx="6" fill="#0f172a"/>
  <rect x="16" y="272" width="460" height="24" rx="6" fill="#1e3a8a" opacity="0.5"/>
  <text x="30" y="288" fill="#93c5fd" font-size="9">Course</text>
  <text x="170" y="288" fill="#93c5fd" font-size="9">Current%</text>
  <text x="240" y="288" fill="#93c5fd" font-size="9">Final Wt%</text>
  <text x="318" y="288" fill="#93c5fd" font-size="9">Target</text>
  <text x="380" y="288" fill="#93c5fd" font-size="9">Need on Final</text>
  <text x="440" y="288" fill="#93c5fd" font-size="9">?</text>

  <text x="30" y="308" fill="#e2e8f0" font-size="9">Database Systems</text>
  <text x="170" y="308" fill="#e2e8f0" font-size="9">80.4%</text>
  <text x="240" y="308" fill="#e2e8f0" font-size="9">40%</text>
  <text x="318" y="308" fill="#e2e8f0" font-size="9">B+ (87%)</text>
  <text x="380" y="308" fill="#f59e0b" font-size="9">96.4%</text>
  <text x="440" y="308" fill="#fbbf24" font-size="9">Tough</text>

  <text x="30" y="326" fill="#e2e8f0" font-size="9">Operating Systems</text>
  <text x="170" y="326" fill="#e2e8f0" font-size="9">79.6%</text>
  <text x="240" y="326" fill="#e2e8f0" font-size="9">45%</text>
  <text x="318" y="326" fill="#e2e8f0" font-size="9">B- (80%)</text>
  <text x="380" y="326" fill="#4ade80" font-size="9">80.7%</text>
  <text x="440" y="326" fill="#22c55e" font-size="9">Yes</text>

  <text x="30" y="344" fill="#e2e8f0" font-size="9">Algorithms</text>
  <text x="170" y="344" fill="#e2e8f0" font-size="9">91.2%</text>
  <text x="240" y="344" fill="#e2e8f0" font-size="9">35%</text>
  <text x="318" y="344" fill="#e2e8f0" font-size="9">A (93%)</text>
  <text x="380" y="344" fill="#4ade80" font-size="9">96.8%</text>
  <text x="440" y="344" fill="#fbbf24" font-size="9">Tough</text>

  <rect x="16" y="358" width="460" height="24" rx="4" fill="#1e293b"/>
  <text x="30" y="374" fill="#60a5fa" font-size="9">For 3.80 cumulative GPA: need 3.48 this semester → need avg 88.2% on all finals</text>

  <!-- GPA history chart -->
  <rect x="494" y="272" width="290" height="110" rx="6" fill="#0f172a"/>
  <text x="639" y="290" fill="#94a3b8" font-size="9" text-anchor="middle">Cumulative GPA History</text>
  <polyline points="510,358 552,348 594,342 636,336 678,330 720,326 762,320" fill="none" stroke="#3b82f6" stroke-width="2"/>
  <circle cx="510" cy="358" r="3" fill="#60a5fa"/>
  <circle cx="552" cy="348" r="3" fill="#60a5fa"/>
  <circle cx="594" cy="342" r="3" fill="#60a5fa"/>
  <circle cx="636" cy="336" r="3" fill="#60a5fa"/>
  <circle cx="678" cy="330" r="3" fill="#60a5fa"/>
  <circle cx="720" cy="326" r="3" fill="#60a5fa"/>
  <circle cx="762" cy="320" r="3" fill="#4ade80"/>
  <line x1="510" y1="312" x2="762" y2="312" stroke="#374151" stroke-width="1" stroke-dasharray="4,2"/>
  <text x="766" y="316" fill="#94a3b8" font-size="8">3.80</text>
  <g fill="#94a3b8" font-size="7">
    <text x="506" y="375">Fr1</text><text x="548" y="375">Fr2</text><text x="590" y="375">So1</text>
    <text x="632" y="375">So2</text><text x="674" y="375">Jr1</text><text x="716" y="375">Jr2*</text>
  </g>
  <text x="714" y="366" fill="#94a3b8" font-size="7">*proj</text>

  <text x="16" y="413" fill="#475569" font-size="10">PromptCopy.io — Student GPA Calculator &amp; What-If Grade Simulator</text>
</svg>
