<svg xmlns="http://www.w3.org/2000/svg" viewBox="0 0 800 420" font-family="'Segoe UI', Arial, sans-serif">
  <rect width="800" height="420" fill="#f8fafc"/>
  <rect width="800" height="50" fill="#0369a1"/>
  <text x="20" y="22" fill="#e0f2fe" font-size="12" font-weight="bold">Travel Budget Planner — Tokyo, Japan (7 Days)</text>
  <text x="20" y="42" fill="#bae6fd" font-size="11">Base Currency: USD  |  Dest: JPY  |  Live Rate: =GOOGLEFINANCE("CURRENCY:USDJPY") → 151.23</text>

  <!-- Trip info bar -->
  <rect y="50" width="800" height="36" fill="#0284c7"/>
  <text x="20" y="73" fill="#e0f2fe" font-size="11">Apr 20 – Apr 27, 2026  |  2 People  |  Total Budget: $3,200  |  Per Person/Day: $228.57</text>
  <rect x="620" y="57" width="160" height="22" rx="6" fill="#0ea5e9"/>
  <text x="700" y="72" fill="#fff" font-size="10" text-anchor="middle" font-weight="bold">⟳ Rate Updated: Now</text>

  <!-- Column headers -->
  <rect y="86" width="800" height="26" fill="#1e293b"/>
  <text x="16" y="104" fill="#94a3b8" font-size="10" font-weight="bold">Category</text>
  <text x="230" y="104" fill="#94a3b8" font-size="10" font-weight="bold">Item</text>
  <text x="390" y="104" fill="#94a3b8" font-size="10" font-weight="bold">Budget (USD)</text>
  <text x="490" y="104" fill="#94a3b8" font-size="10" font-weight="bold">Budget (JPY)</text>
  <text x="590" y="104" fill="#94a3b8" font-size="10" font-weight="bold">Actual (JPY)</text>
  <text x="700" y="104" fill="#94a3b8" font-size="10" font-weight="bold">Variance</text>

  <!-- Rows -->
  <rect y="112" width="800" height="24" fill="#eff6ff"/>
  <text x="16" y="128" fill="#1d4ed8" font-size="10" font-weight="bold">► FLIGHTS</text>
  <text x="230" y="128" fill="#1e293b" font-size="10">Round-trip airfare (×2)</text>
  <text x="390" y="128" fill="#1e293b" font-size="10">$1,200.00</text>
  <text x="490" y="128" fill="#64748b" font-size="10">¥181,476</text>
  <text x="590" y="128" fill="#64748b" font-size="10">¥178,000</text>
  <text x="700" y="128" fill="#22c55e" font-size="10">+$23</text>

  <rect y="136" width="800" height="24" fill="#fff"/>
  <text x="16" y="152" fill="#0369a1" font-size="10" font-weight="bold">🏨 ACCOMMODATION</text>
  <text x="230" y="152" fill="#1e293b" font-size="10">Hotel (7 nights)</text>
  <text x="390" y="152" fill="#1e293b" font-size="10">$840.00</text>
  <text x="490" y="152" fill="#64748b" font-size="10">¥127,033</text>
  <text x="590" y="152" fill="#64748b" font-size="10">¥131,000</text>
  <text x="700" y="152" fill="#ef4444" font-size="10">-$26</text>

  <rect y="160" width="800" height="24" fill="#eff6ff"/>
  <text x="16" y="176" fill="#065f46" font-size="10" font-weight="bold">■ TRANSPORTATION</text>
  <text x="230" y="176" fill="#1e293b" font-size="10">IC Card + Train passes</text>
  <text x="390" y="176" fill="#1e293b" font-size="10">$180.00</text>
  <text x="490" y="176" fill="#64748b" font-size="10">¥27,221</text>
  <text x="590" y="176" fill="#64748b" font-size="10">¥24,000</text>
  <text x="700" y="176" fill="#22c55e" font-size="10">+$21</text>

  <rect y="184" width="800" height="24" fill="#fff"/>
  <text x="16" y="200" fill="#92400e" font-size="10" font-weight="bold">■ FOOD &amp; DRINK</text>
  <text x="230" y="200" fill="#1e293b" font-size="10">All meals (7 days × 2 ppl)</text>
  <text x="390" y="200" fill="#1e293b" font-size="10">$560.00</text>
  <text x="490" y="200" fill="#64748b" font-size="10">¥84,689</text>
  <text x="590" y="200" fill="#64748b" font-size="10">¥79,500</text>
  <text x="700" y="200" fill="#22c55e" font-size="10">+$34</text>

  <rect y="208" width="800" height="24" fill="#eff6ff"/>
  <text x="16" y="224" fill="#7c3aed" font-size="10" font-weight="bold">🎡 ACTIVITIES</text>
  <text x="230" y="224" fill="#1e293b" font-size="10">Temples, TeamLab, DisneySea</text>
  <text x="390" y="224" fill="#1e293b" font-size="10">$260.00</text>
  <text x="490" y="224" fill="#64748b" font-size="10">¥39,320</text>
  <text x="590" y="224" fill="#64748b" font-size="10">¥41,000</text>
  <text x="700" y="224" fill="#ef4444" font-size="10">-$11</text>

  <rect y="232" width="800" height="24" fill="#fff"/>
  <text x="16" y="248" fill="#be185d" font-size="10" font-weight="bold">🛍 SHOPPING</text>
  <text x="230" y="248" fill="#1e293b" font-size="10">Gifts &amp; souvenirs</text>
  <text x="390" y="248" fill="#1e293b" font-size="10">$160.00</text>
  <text x="490" y="248" fill="#64748b" font-size="10">¥24,197</text>
  <text x="590" y="248" fill="#64748b" font-size="10">¥19,800</text>
  <text x="700" y="248" fill="#22c55e" font-size="10">+$29</text>

  <!-- Totals row -->
  <rect y="256" width="800" height="28" fill="#1e293b"/>
  <text x="16" y="275" fill="#f1f5f9" font-size="11" font-weight="bold">TOTALS</text>
  <text x="390" y="275" fill="#38bdf8" font-size="11" font-weight="bold">$3,200</text>
  <text x="490" y="275" fill="#94a3b8" font-size="11">¥483,936</text>
  <text x="590" y="275" fill="#94a3b8" font-size="11">¥473,300</text>
  <text x="700" y="275" fill="#34d399" font-size="11" font-weight="bold">+$70</text>

  <!-- Day log -->
  <rect y="296" width="800" height="124" fill="#0f172a"/>
  <text x="20" y="318" fill="#94a3b8" font-size="11" font-weight="bold">DAY-BY-DAY SPENDING LOG</text>

  <!-- Log headers -->
  <rect y="325" width="800" height="22" fill="#1e293b"/>
  <text x="20" y="340" fill="#64748b" font-size="9">Date</text>
  <text x="90" y="340" fill="#64748b" font-size="9">Day</text>
  <text x="130" y="340" fill="#64748b" font-size="9">Category</text>
  <text x="250" y="340" fill="#64748b" font-size="9">Description</text>
  <text x="490" y="340" fill="#64748b" font-size="9">JPY</text>
  <text x="560" y="340" fill="#64748b" font-size="9">USD</text>
  <text x="640" y="340" fill="#64748b" font-size="9">Running Total</text>

  <rect y="347" width="800" height="20" fill="#1e293b" opacity="0.5"/>
  <text x="20" y="361" fill="#e2e8f0" font-size="9">Apr 20</text>
  <text x="90" y="361" fill="#e2e8f0" font-size="9">Day 1</text>
  <text x="130" y="361" fill="#38bdf8" font-size="9">Food</text>
  <text x="250" y="361" fill="#e2e8f0" font-size="9">Ramen at Ichiran + Convenience store</text>
  <text x="490" y="361" fill="#e2e8f0" font-size="9">¥3,200</text>
  <text x="560" y="361" fill="#e2e8f0" font-size="9">$21.16</text>
  <text x="640" y="361" fill="#34d399" font-size="9">$21.16</text>

  <rect y="367" width="800" height="20" fill="#1e293b" opacity="0.3"/>
  <text x="20" y="381" fill="#e2e8f0" font-size="9">Apr 20</text>
  <text x="90" y="381" fill="#e2e8f0" font-size="9">Day 1</text>
  <text x="130" y="381" fill="#a78bfa" font-size="9">Activity</text>
  <text x="250" y="381" fill="#e2e8f0" font-size="9">Senso-ji + Asakusa area</text>
  <text x="490" y="381" fill="#e2e8f0" font-size="9">¥0</text>
  <text x="560" y="381" fill="#e2e8f0" font-size="9">$0.00</text>
  <text x="640" y="381" fill="#34d399" font-size="9">$21.16</text>

  <text x="20" y="410" fill="#475569" font-size="10">PromptCopy.io — Travel Budget Planner with Live Exchange Rates (Google Sheets)</text>
</svg>
